<?xml version="1.0" encoding="UTF-8" standalone="no"?>
<!DOCTYPE svg PUBLIC "-//W3C//DTD SVG 1.1//EN"
 "http://www.w3.org/Graphics/SVG/1.1/DTD/svg11.dtd">
<!-- Generated by graphviz version 2.43.0 (0)
 -->
<!-- Title: firmware/main/ble.h Pages: 1 -->
<svg width="344pt" height="140pt"
 viewBox="0.00 0.00 344.00 140.00" xmlns="http://www.w3.org/2000/svg" xmlns:xlink="http://www.w3.org/1999/xlink">
<g id="graph0" class="graph" transform="scale(1 1) rotate(0) translate(4 136)">
<title>firmware/main/ble.h</title>
<!-- Node1 -->
<g id="node1" class="node">
<title>Node1</title>
<g id="a_node1"><a xlink:title=" ">
<polygon fill="#bfbfbf" stroke="black" points="74.5,-112.5 74.5,-131.5 189.5,-131.5 189.5,-112.5 74.5,-112.5"/>
<text text-anchor="middle" x="132" y="-119.5" font-family="Helvetica,sans-Serif" font-size="10.00">firmware/main/ble.h</text>
</a>
</g>
</g>
<!-- Node2 -->
<g id="node2" class="node">
<title>Node2</title>
<g id="a_node2"><a xlink:title=" ">
<polygon fill="none" stroke="#bfbfbf" points="0,-0.5 0,-19.5 62,-19.5 62,-0.5 0,-0.5"/>
<text text-anchor="middle" x="31" y="-7.5" font-family="Helvetica,sans-Serif" font-size="10.00">arduino.h</text>
</a>
</g>
</g>
<!-- Node1&#45;&gt;Node2 -->
<g id="edge1" class="edge">
<title>Node1&#45;&gt;Node2</title>
<path fill="none" stroke="midnightblue" d="M124.07,-112.37C107.19,-93.97 67.43,-50.67 45.74,-27.05"/>
<polygon fill="midnightblue" stroke="midnightblue" points="48.23,-24.59 38.89,-19.59 43.07,-29.32 48.23,-24.59"/>
</g>
<!-- Node3 -->
<g id="node3" class="node">
<title>Node3</title>
<g id="a_node3"><a xlink:title=" ">
<polygon fill="none" stroke="#bfbfbf" points="229.5,-56.5 229.5,-75.5 296.5,-75.5 296.5,-56.5 229.5,-56.5"/>
<text text-anchor="middle" x="263" y="-63.5" font-family="Helvetica,sans-Serif" font-size="10.00">bluefruit.h</text>
</a>
</g>
</g>
<!-- Node1&#45;&gt;Node3 -->
<g id="edge2" class="edge">
<title>Node1&#45;&gt;Node3</title>
<path fill="none" stroke="midnightblue" d="M152.76,-112.44C174.32,-103.56 208.26,-89.56 232.79,-79.45"/>
<polygon fill="midnightblue" stroke="midnightblue" points="234.43,-82.56 242.34,-75.52 231.76,-76.09 234.43,-82.56"/>
</g>
<!-- Node4 -->
<g id="node4" class="node">
<title>Node4</title>
<g id="a_node4"><a xlink:href="config_8h.html" target="_top" xlink:title=" ">
<polygon fill="none" stroke="black" points="80.5,-0.5 80.5,-19.5 135.5,-19.5 135.5,-0.5 80.5,-0.5"/>
<text text-anchor="middle" x="108" y="-7.5" font-family="Helvetica,sans-Serif" font-size="10.00">config.h</text>
</a>
</g>
</g>
<!-- Node1&#45;&gt;Node4 -->
<g id="edge3" class="edge">
<title>Node1&#45;&gt;Node4</title>
<path fill="none" stroke="midnightblue" d="M128.22,-112.21C124.54,-103.26 119.05,-88.91 116,-76 112.36,-60.6 110.31,-42.72 109.2,-29.62"/>
<polygon fill="midnightblue" stroke="midnightblue" points="112.68,-29.23 108.45,-19.52 105.7,-29.75 112.68,-29.23"/>
</g>
<!-- Node5 -->
<g id="node5" class="node">
<title>Node5</title>
<g id="a_node5"><a xlink:href="temperature_8h.html" target="_top" xlink:title=" ">
<polygon fill="none" stroke="black" points="125,-56.5 125,-75.5 211,-75.5 211,-56.5 125,-56.5"/>
<text text-anchor="middle" x="168" y="-63.5" font-family="Helvetica,sans-Serif" font-size="10.00">temperature.h</text>
</a>
</g>
</g>
<!-- Node1&#45;&gt;Node5 -->
<g id="edge4" class="edge">
<title>Node1&#45;&gt;Node5</title>
<path fill="none" stroke="midnightblue" d="M137.94,-112.08C142.98,-104.53 150.34,-93.49 156.51,-84.23"/>
<polygon fill="midnightblue" stroke="midnightblue" points="159.53,-86.01 162.17,-75.75 153.71,-82.13 159.53,-86.01"/>
</g>
<!-- Node5&#45;&gt;Node2 -->
<g id="edge5" class="edge">
<title>Node5&#45;&gt;Node2</title>
<path fill="none" stroke="midnightblue" d="M146.29,-56.44C123.65,-47.52 87.93,-33.44 62.25,-23.32"/>
<polygon fill="midnightblue" stroke="midnightblue" points="63.19,-19.93 52.61,-19.52 60.63,-26.44 63.19,-19.93"/>
</g>
<!-- Node5&#45;&gt;Node4 -->
<g id="edge8" class="edge">
<title>Node5&#45;&gt;Node4</title>
<path fill="none" stroke="midnightblue" d="M158.36,-56.32C149.49,-48.34 136.13,-36.31 125.39,-26.65"/>
<polygon fill="midnightblue" stroke="midnightblue" points="127.59,-23.92 117.82,-19.83 122.91,-29.13 127.59,-23.92"/>
</g>
<!-- Node6 -->
<g id="node6" class="node">
<title>Node6</title>
<g id="a_node6"><a xlink:title=" ">
<polygon fill="none" stroke="#bfbfbf" points="154,-0.5 154,-19.5 202,-19.5 202,-0.5 154,-0.5"/>
<text text-anchor="middle" x="178" y="-7.5" font-family="Helvetica,sans-Serif" font-size="10.00">Wire.h</text>
</a>
</g>
</g>
<!-- Node5&#45;&gt;Node6 -->
<g id="edge6" class="edge">
<title>Node5&#45;&gt;Node6</title>
<path fill="none" stroke="midnightblue" d="M169.65,-56.08C170.98,-48.93 172.88,-38.64 174.54,-29.69"/>
<polygon fill="midnightblue" stroke="midnightblue" points="178,-30.22 176.38,-19.75 171.12,-28.95 178,-30.22"/>
</g>
<!-- Node7 -->
<g id="node7" class="node">
<title>Node7</title>
<g id="a_node7"><a xlink:title=" ">
<polygon fill="none" stroke="#bfbfbf" points="220,-0.5 220,-19.5 336,-19.5 336,-0.5 220,-0.5"/>
<text text-anchor="middle" x="278" y="-7.5" font-family="Helvetica,sans-Serif" font-size="10.00">Adafruit_MCP9808.h</text>
</a>
</g>
</g>
<!-- Node5&#45;&gt;Node7 -->
<g id="edge7" class="edge">
<title>Node5&#45;&gt;Node7</title>
<path fill="none" stroke="midnightblue" d="M185.67,-56.32C203.39,-47.62 230.9,-34.12 251.29,-24.11"/>
<polygon fill="midnightblue" stroke="midnightblue" points="252.94,-27.2 260.37,-19.65 249.85,-20.92 252.94,-27.2"/>
</g>
</g>
</svg>
