<?xml version="1.0" encoding="UTF-8" standalone="no"?>
<!DOCTYPE svg PUBLIC "-//W3C//DTD SVG 1.1//EN"
 "http://www.w3.org/Graphics/SVG/1.1/DTD/svg11.dtd">
<!-- Generated by graphviz version 2.43.0 (0)
 -->
<!-- Title: firmware/main/config.h Pages: 1 -->
<svg width="472pt" height="140pt"
 viewBox="0.00 0.00 472.00 140.00" xmlns="http://www.w3.org/2000/svg" xmlns:xlink="http://www.w3.org/1999/xlink">
<g id="graph0" class="graph" transform="scale(1 1) rotate(0) translate(4 136)">
<title>firmware/main/config.h</title>
<!-- Node1 -->
<g id="node1" class="node">
<title>Node1</title>
<g id="a_node1"><a xlink:title=" ">
<polygon fill="#bfbfbf" stroke="black" points="144.5,-112.5 144.5,-131.5 273.5,-131.5 273.5,-112.5 144.5,-112.5"/>
<text text-anchor="middle" x="209" y="-119.5" font-family="Helvetica,sans-Serif" font-size="10.00">firmware/main/config.h</text>
</a>
</g>
</g>
<!-- Node2 -->
<g id="node2" class="node">
<title>Node2</title>
<g id="a_node2"><a xlink:href="ble_8h.html" target="_top" xlink:title=" ">
<polygon fill="none" stroke="black" points="10.5,-56.5 10.5,-75.5 125.5,-75.5 125.5,-56.5 10.5,-56.5"/>
<text text-anchor="middle" x="68" y="-63.5" font-family="Helvetica,sans-Serif" font-size="10.00">firmware/main/ble.h</text>
</a>
</g>
</g>
<!-- Node1&#45;&gt;Node2 -->
<g id="edge1" class="edge">
<title>Node1&#45;&gt;Node2</title>
<path fill="none" stroke="midnightblue" d="M177.07,-108.77C150.59,-98.63 113.61,-84.47 90.24,-75.52"/>
<polygon fill="midnightblue" stroke="midnightblue" points="176.07,-112.14 186.66,-112.44 178.57,-105.6 176.07,-112.14"/>
</g>
<!-- Node4 -->
<g id="node4" class="node">
<title>Node4</title>
<g id="a_node4"><a xlink:href="imu_8h.html" target="_top" xlink:title=" ">
<polygon fill="none" stroke="black" points="149.5,-56.5 149.5,-75.5 268.5,-75.5 268.5,-56.5 149.5,-56.5"/>
<text text-anchor="middle" x="209" y="-63.5" font-family="Helvetica,sans-Serif" font-size="10.00">firmware/main/imu.h</text>
</a>
</g>
</g>
<!-- Node1&#45;&gt;Node4 -->
<g id="edge3" class="edge">
<title>Node1&#45;&gt;Node4</title>
<path fill="none" stroke="midnightblue" d="M209,-101.8C209,-92.91 209,-82.78 209,-75.75"/>
<polygon fill="midnightblue" stroke="midnightblue" points="205.5,-102.08 209,-112.08 212.5,-102.08 205.5,-102.08"/>
</g>
<!-- Node6 -->
<g id="node6" class="node">
<title>Node6</title>
<g id="a_node6"><a xlink:href="temperature_8h.html" target="_top" xlink:title=" ">
<polygon fill="none" stroke="black" points="291.5,-56.5 291.5,-75.5 452.5,-75.5 452.5,-56.5 291.5,-56.5"/>
<text text-anchor="middle" x="372" y="-63.5" font-family="Helvetica,sans-Serif" font-size="10.00">firmware/main/temperature.h</text>
</a>
</g>
</g>
<!-- Node1&#45;&gt;Node6 -->
<g id="edge5" class="edge">
<title>Node1&#45;&gt;Node6</title>
<path fill="none" stroke="midnightblue" d="M244.7,-109.17C275.4,-99 318.92,-84.59 346.29,-75.52"/>
<polygon fill="midnightblue" stroke="midnightblue" points="243.22,-105.98 234.83,-112.44 245.42,-112.62 243.22,-105.98"/>
</g>
<!-- Node3 -->
<g id="node3" class="node">
<title>Node3</title>
<g id="a_node3"><a xlink:href="ble_8cpp.html" target="_top" xlink:title=" ">
<polygon fill="none" stroke="black" points="0,-0.5 0,-19.5 126,-19.5 126,-0.5 0,-0.5"/>
<text text-anchor="middle" x="63" y="-7.5" font-family="Helvetica,sans-Serif" font-size="10.00">firmware/main/ble.cpp</text>
</a>
</g>
</g>
<!-- Node2&#45;&gt;Node3 -->
<g id="edge2" class="edge">
<title>Node2&#45;&gt;Node3</title>
<path fill="none" stroke="midnightblue" d="M66.25,-46.1C65.42,-37.14 64.47,-26.86 63.81,-19.75"/>
<polygon fill="midnightblue" stroke="midnightblue" points="62.77,-46.45 67.17,-56.08 69.74,-45.8 62.77,-46.45"/>
</g>
<!-- Node5 -->
<g id="node5" class="node">
<title>Node5</title>
<g id="a_node5"><a xlink:href="imu_8cpp.html" target="_top" xlink:title=" ">
<polygon fill="none" stroke="black" points="144,-0.5 144,-19.5 274,-19.5 274,-0.5 144,-0.5"/>
<text text-anchor="middle" x="209" y="-7.5" font-family="Helvetica,sans-Serif" font-size="10.00">firmware/main/imu.cpp</text>
</a>
</g>
</g>
<!-- Node4&#45;&gt;Node5 -->
<g id="edge4" class="edge">
<title>Node4&#45;&gt;Node5</title>
<path fill="none" stroke="midnightblue" d="M209,-45.8C209,-36.91 209,-26.78 209,-19.75"/>
<polygon fill="midnightblue" stroke="midnightblue" points="205.5,-46.08 209,-56.08 212.5,-46.08 205.5,-46.08"/>
</g>
<!-- Node7 -->
<g id="node7" class="node">
<title>Node7</title>
<g id="a_node7"><a xlink:href="temperature_8cpp.html" target="_top" xlink:title=" ">
<polygon fill="none" stroke="black" points="292,-0.5 292,-19.5 464,-19.5 464,-0.5 292,-0.5"/>
<text text-anchor="middle" x="378" y="-7.5" font-family="Helvetica,sans-Serif" font-size="10.00">firmware/main/temperature.cpp</text>
</a>
</g>
</g>
<!-- Node6&#45;&gt;Node7 -->
<g id="edge6" class="edge">
<title>Node6&#45;&gt;Node7</title>
<path fill="none" stroke="midnightblue" d="M374.1,-46.1C375.1,-37.14 376.24,-26.86 377.03,-19.75"/>
<polygon fill="midnightblue" stroke="midnightblue" points="370.62,-45.76 372.99,-56.08 377.57,-46.53 370.62,-45.76"/>
</g>
</g>
</svg>
