<?xml version="1.0" encoding="UTF-8" standalone="no"?>
<!DOCTYPE svg PUBLIC "-//W3C//DTD SVG 1.1//EN"
 "http://www.w3.org/Graphics/SVG/1.1/DTD/svg11.dtd">
<!-- Generated by graphviz version 2.43.0 (0)
 -->
<!-- Title: firmware/main/config.h Pages: 1 -->
<svg width="462pt" height="196pt"
 viewBox="0.00 0.00 462.00 196.00" xmlns="http://www.w3.org/2000/svg" xmlns:xlink="http://www.w3.org/1999/xlink">
<g id="graph0" class="graph" transform="scale(1 1) rotate(0) translate(4 192)">
<title>firmware/main/config.h</title>
<!-- Node1 -->
<g id="node1" class="node">
<title>Node1</title>
<g id="a_node1"><a xlink:title=" ">
<polygon fill="#bfbfbf" stroke="black" points="127.5,-168.5 127.5,-187.5 256.5,-187.5 256.5,-168.5 127.5,-168.5"/>
<text text-anchor="middle" x="192" y="-175.5" font-family="Helvetica,sans-Serif" font-size="10.00">firmware/main/config.h</text>
</a>
</g>
</g>
<!-- Node2 -->
<g id="node2" class="node">
<title>Node2</title>
<g id="a_node2"><a xlink:href="ble_8h.html" target="_top" xlink:title=" ">
<polygon fill="none" stroke="black" points="148.5,-56.5 148.5,-75.5 263.5,-75.5 263.5,-56.5 148.5,-56.5"/>
<text text-anchor="middle" x="206" y="-63.5" font-family="Helvetica,sans-Serif" font-size="10.00">firmware/main/ble.h</text>
</a>
</g>
</g>
<!-- Node1&#45;&gt;Node2 -->
<g id="edge1" class="edge">
<title>Node1&#45;&gt;Node2</title>
<path fill="none" stroke="midnightblue" d="M194.37,-158.35C197.44,-134.25 202.65,-93.31 204.91,-75.59"/>
<polygon fill="midnightblue" stroke="midnightblue" points="190.89,-158.01 193.1,-168.37 197.83,-158.89 190.89,-158.01"/>
</g>
<!-- Node4 -->
<g id="node4" class="node">
<title>Node4</title>
<g id="a_node4"><a xlink:href="imu_8h.html" target="_top" xlink:title=" ">
<polygon fill="none" stroke="black" points="31.5,-112.5 31.5,-131.5 150.5,-131.5 150.5,-112.5 31.5,-112.5"/>
<text text-anchor="middle" x="91" y="-119.5" font-family="Helvetica,sans-Serif" font-size="10.00">firmware/main/imu.h</text>
</a>
</g>
</g>
<!-- Node1&#45;&gt;Node4 -->
<g id="edge3" class="edge">
<title>Node1&#45;&gt;Node4</title>
<path fill="none" stroke="midnightblue" d="M166.92,-163.59C148.24,-153.61 123.3,-140.27 107.19,-131.65"/>
<polygon fill="midnightblue" stroke="midnightblue" points="165.3,-166.7 175.77,-168.32 168.6,-160.52 165.3,-166.7"/>
</g>
<!-- Node6 -->
<g id="node6" class="node">
<title>Node6</title>
<g id="a_node6"><a xlink:href="temperature_8h.html" target="_top" xlink:title=" ">
<polygon fill="none" stroke="black" points="220.5,-112.5 220.5,-131.5 381.5,-131.5 381.5,-112.5 220.5,-112.5"/>
<text text-anchor="middle" x="301" y="-119.5" font-family="Helvetica,sans-Serif" font-size="10.00">firmware/main/temperature.h</text>
</a>
</g>
</g>
<!-- Node1&#45;&gt;Node6 -->
<g id="edge5" class="edge">
<title>Node1&#45;&gt;Node6</title>
<path fill="none" stroke="midnightblue" d="M218.52,-163.86C238.73,-153.85 265.99,-140.35 283.53,-131.65"/>
<polygon fill="midnightblue" stroke="midnightblue" points="216.92,-160.75 209.51,-168.32 220.03,-167.02 216.92,-160.75"/>
</g>
<!-- Node3 -->
<g id="node3" class="node">
<title>Node3</title>
<g id="a_node3"><a xlink:href="ble_8cpp.html" target="_top" xlink:title=" ">
<polygon fill="none" stroke="black" points="143,-0.5 143,-19.5 269,-19.5 269,-0.5 143,-0.5"/>
<text text-anchor="middle" x="206" y="-7.5" font-family="Helvetica,sans-Serif" font-size="10.00">firmware/main/ble.cpp</text>
</a>
</g>
</g>
<!-- Node2&#45;&gt;Node3 -->
<g id="edge2" class="edge">
<title>Node2&#45;&gt;Node3</title>
<path fill="none" stroke="midnightblue" d="M206,-45.8C206,-36.91 206,-26.78 206,-19.75"/>
<polygon fill="midnightblue" stroke="midnightblue" points="202.5,-46.08 206,-56.08 209.5,-46.08 202.5,-46.08"/>
</g>
<!-- Node5 -->
<g id="node5" class="node">
<title>Node5</title>
<g id="a_node5"><a xlink:href="imu_8cpp.html" target="_top" xlink:title=" ">
<polygon fill="none" stroke="black" points="0,-56.5 0,-75.5 130,-75.5 130,-56.5 0,-56.5"/>
<text text-anchor="middle" x="65" y="-63.5" font-family="Helvetica,sans-Serif" font-size="10.00">firmware/main/imu.cpp</text>
</a>
</g>
</g>
<!-- Node4&#45;&gt;Node5 -->
<g id="edge4" class="edge">
<title>Node4&#45;&gt;Node5</title>
<path fill="none" stroke="midnightblue" d="M82.33,-102.98C77.91,-93.82 72.75,-83.09 69.21,-75.75"/>
<polygon fill="midnightblue" stroke="midnightblue" points="79.21,-104.59 86.71,-112.08 85.52,-101.55 79.21,-104.59"/>
</g>
<!-- Node6&#45;&gt;Node2 -->
<g id="edge6" class="edge">
<title>Node6&#45;&gt;Node2</title>
<path fill="none" stroke="midnightblue" d="M276.68,-107.18C259.2,-97.24 236.17,-84.15 221.23,-75.65"/>
<polygon fill="midnightblue" stroke="midnightblue" points="275.31,-110.43 285.74,-112.32 278.77,-104.34 275.31,-110.43"/>
</g>
<!-- Node7 -->
<g id="node7" class="node">
<title>Node7</title>
<g id="a_node7"><a xlink:href="temperature_8cpp.html" target="_top" xlink:title=" ">
<polygon fill="none" stroke="black" points="282,-56.5 282,-75.5 454,-75.5 454,-56.5 282,-56.5"/>
<text text-anchor="middle" x="368" y="-63.5" font-family="Helvetica,sans-Serif" font-size="10.00">firmware/main/temperature.cpp</text>
</a>
</g>
</g>
<!-- Node6&#45;&gt;Node7 -->
<g id="edge7" class="edge">
<title>Node6&#45;&gt;Node7</title>
<path fill="none" stroke="midnightblue" d="M319.83,-105.82C331.84,-96.15 346.97,-83.95 357.04,-75.83"/>
<polygon fill="midnightblue" stroke="midnightblue" points="317.35,-103.32 311.76,-112.32 321.75,-108.77 317.35,-103.32"/>
</g>
</g>
</svg>
