<?xml version="1.0" encoding="UTF-8" standalone="no"?>
<!DOCTYPE svg PUBLIC "-//W3C//DTD SVG 1.1//EN"
 "http://www.w3.org/Graphics/SVG/1.1/DTD/svg11.dtd">
<!-- Generated by graphviz version 2.43.0 (0)
 -->
<!-- Title: firmware/main/temperature.h Pages: 1 -->
<svg width="566pt" height="84pt"
 viewBox="0.00 0.00 566.00 84.00" xmlns="http://www.w3.org/2000/svg" xmlns:xlink="http://www.w3.org/1999/xlink">
<g id="graph0" class="graph" transform="scale(1 1) rotate(0) translate(4 80)">
<title>firmware/main/temperature.h</title>
<!-- Node1 -->
<g id="node1" class="node">
<title>Node1</title>
<g id="a_node1"><a xlink:title=" ">
<polygon fill="#bfbfbf" stroke="black" points="175.5,-56.5 175.5,-75.5 336.5,-75.5 336.5,-56.5 175.5,-56.5"/>
<text text-anchor="middle" x="256" y="-63.5" font-family="Helvetica,sans-Serif" font-size="10.00">firmware/main/temperature.h</text>
</a>
</g>
</g>
<!-- Node2 -->
<g id="node2" class="node">
<title>Node2</title>
<g id="a_node2"><a xlink:title=" ">
<polygon fill="none" stroke="#bfbfbf" points="0,-0.5 0,-19.5 62,-19.5 62,-0.5 0,-0.5"/>
<text text-anchor="middle" x="31" y="-7.5" font-family="Helvetica,sans-Serif" font-size="10.00">arduino.h</text>
</a>
</g>
</g>
<!-- Node1&#45;&gt;Node2 -->
<g id="edge1" class="edge">
<title>Node1&#45;&gt;Node2</title>
<path fill="none" stroke="midnightblue" d="M220.35,-56.44C179.97,-46.75 114.28,-30.99 71.87,-20.81"/>
<polygon fill="midnightblue" stroke="midnightblue" points="72.68,-17.4 62.14,-18.47 71.04,-24.21 72.68,-17.4"/>
</g>
<!-- Node3 -->
<g id="node3" class="node">
<title>Node3</title>
<g id="a_node3"><a xlink:title=" ">
<polygon fill="none" stroke="#bfbfbf" points="80,-0.5 80,-19.5 128,-19.5 128,-0.5 80,-0.5"/>
<text text-anchor="middle" x="104" y="-7.5" font-family="Helvetica,sans-Serif" font-size="10.00">Wire.h</text>
</a>
</g>
</g>
<!-- Node1&#45;&gt;Node3 -->
<g id="edge2" class="edge">
<title>Node1&#45;&gt;Node3</title>
<path fill="none" stroke="midnightblue" d="M231.92,-56.44C206.46,-47.4 166.11,-33.06 137.54,-22.92"/>
<polygon fill="midnightblue" stroke="midnightblue" points="138.57,-19.57 127.97,-19.52 136.22,-26.16 138.57,-19.57"/>
</g>
<!-- Node4 -->
<g id="node4" class="node">
<title>Node4</title>
<g id="a_node4"><a xlink:title=" ">
<polygon fill="none" stroke="#bfbfbf" points="146,-0.5 146,-19.5 262,-19.5 262,-0.5 146,-0.5"/>
<text text-anchor="middle" x="204" y="-7.5" font-family="Helvetica,sans-Serif" font-size="10.00">Adafruit_MCP9808.h</text>
</a>
</g>
</g>
<!-- Node1&#45;&gt;Node4 -->
<g id="edge3" class="edge">
<title>Node1&#45;&gt;Node4</title>
<path fill="none" stroke="midnightblue" d="M247.41,-56.08C239.84,-48.22 228.62,-36.57 219.49,-27.08"/>
<polygon fill="midnightblue" stroke="midnightblue" points="221.88,-24.53 212.43,-19.75 216.84,-29.38 221.88,-24.53"/>
</g>
<!-- Node5 -->
<g id="node5" class="node">
<title>Node5</title>
<g id="a_node5"><a xlink:href="config_8h.html" target="_top" xlink:title=" ">
<polygon fill="none" stroke="black" points="280.5,-0.5 280.5,-19.5 335.5,-19.5 335.5,-0.5 280.5,-0.5"/>
<text text-anchor="middle" x="308" y="-7.5" font-family="Helvetica,sans-Serif" font-size="10.00">config.h</text>
</a>
</g>
</g>
<!-- Node1&#45;&gt;Node5 -->
<g id="edge4" class="edge">
<title>Node1&#45;&gt;Node5</title>
<path fill="none" stroke="midnightblue" d="M264.59,-56.08C272.16,-48.22 283.38,-36.57 292.51,-27.08"/>
<polygon fill="midnightblue" stroke="midnightblue" points="295.16,-29.38 299.57,-19.75 290.12,-24.53 295.16,-29.38"/>
</g>
<!-- Node6 -->
<g id="node6" class="node">
<title>Node6</title>
<g id="a_node6"><a xlink:title=" ">
<polygon fill="none" stroke="#bfbfbf" points="354,-0.5 354,-19.5 422,-19.5 422,-0.5 354,-0.5"/>
<text text-anchor="middle" x="388" y="-7.5" font-family="Helvetica,sans-Serif" font-size="10.00">OneWire.h</text>
</a>
</g>
</g>
<!-- Node1&#45;&gt;Node6 -->
<g id="edge5" class="edge">
<title>Node1&#45;&gt;Node6</title>
<path fill="none" stroke="midnightblue" d="M276.92,-56.44C298.74,-47.52 333.15,-33.44 357.89,-23.32"/>
<polygon fill="midnightblue" stroke="midnightblue" points="359.25,-26.54 367.18,-19.52 356.6,-20.06 359.25,-26.54"/>
</g>
<!-- Node7 -->
<g id="node7" class="node">
<title>Node7</title>
<g id="a_node7"><a xlink:title=" ">
<polygon fill="none" stroke="#bfbfbf" points="440,-0.5 440,-19.5 558,-19.5 558,-0.5 440,-0.5"/>
<text text-anchor="middle" x="499" y="-7.5" font-family="Helvetica,sans-Serif" font-size="10.00">DallasTemperature.h</text>
</a>
</g>
</g>
<!-- Node1&#45;&gt;Node7 -->
<g id="edge6" class="edge">
<title>Node1&#45;&gt;Node7</title>
<path fill="none" stroke="midnightblue" d="M294.5,-56.44C336.81,-47.04 404.82,-31.93 450.67,-21.74"/>
<polygon fill="midnightblue" stroke="midnightblue" points="451.67,-25.1 460.68,-19.52 450.15,-18.27 451.67,-25.1"/>
</g>
</g>
</svg>
